<svg width="36" height="36" viewBox="0 0 36 36" fill="none" xmlns="http://www.w3.org/2000/svg">
<circle cx="18" cy="18" r="18" fill="#F9FAFB"/>
<path d="M15.3293 5.53857C14.6211 5.53857 13.9419 5.81989 13.4411 6.32064C12.9403 6.82139 12.659 7.50055 12.659 8.20871V12.6607H8.20842C7.5002 12.6607 6.82099 12.942 6.32021 13.4428C5.81942 13.9435 5.53809 14.6227 5.53809 15.3309V20.6711C5.53809 21.3793 5.81942 22.0585 6.32021 22.5592C6.82099 23.06 7.5002 23.3413 8.20842 23.3413H12.659V27.7915C12.659 28.4997 12.9403 29.1788 13.4411 29.6796C13.9419 30.1803 14.6211 30.4617 15.3293 30.4617H20.67C21.3782 30.4617 22.0574 30.1803 22.5582 29.6796C23.0589 29.1788 23.3403 28.4997 23.3403 27.7915V23.3413H27.7908C28.499 23.3413 29.1783 23.06 29.679 22.5592C30.1798 22.0585 30.4612 21.3793 30.4612 20.6711V15.3309C30.4612 14.6227 30.1798 13.9435 29.679 13.4428C29.1783 12.942 28.499 12.6607 27.7908 12.6607H23.3403V8.20871C23.3403 7.50055 23.0589 6.82139 22.5582 6.32064C22.0574 5.81989 21.3782 5.53857 20.67 5.53857H15.3293Z" fill="#1A73E8"/>
</svg>
